<svg xmlns="http://www.w3.org/2000/svg" viewBox="0 0 123.61 40.43"><defs><style>.cls-1{fill:#fff;}</style></defs><title>appstore</title><g id="Layer_2" data-name="Layer 2"><g id="MockUp_2" data-name="MockUp 2"><rect width="123.61" height="40.43" rx="5.46" ry="5.46"/><path class="cls-1" d="M32.23,26.73a19.5,19.5,0,0,1-1.81,3.38c-1.17,1.79-2.83,4-4.88,4-1.83,0-2.29-1.18-4.77-1.17s-3,1.19-4.82,1.18c-2,0-3.62-2-4.8-3.82-3.28-5-3.63-10.88-1.6-14a7.27,7.27,0,0,1,5.85-3.52C17.58,12.81,19,14,20.74,14s2.81-1.19,5.33-1.19a7.08,7.08,0,0,1,5.35,2.82A6.13,6.13,0,0,0,32.23,26.73Z"/><path class="cls-1" d="M24.16,10.81a6.12,6.12,0,0,0,1.36-4.52,6.56,6.56,0,0,0-4.26,2.29A5.68,5.68,0,0,0,19.86,13,5.57,5.57,0,0,0,24.16,10.81Z"/><path class="cls-1" d="M42.25,16.25,37.54,30.11H39.7l1.4-4.25h4.56l1.45,4.25h2.21L44.59,16.25Zm1.12,2.28c.16.62.33,1.26.55,2l1.27,3.67H41.57l1.26-3.7C43,19.86,43.2,19.22,43.37,18.53Z"/><path class="cls-1" d="M55.42,19.85a3.93,3.93,0,0,0-3.34,1.6L52,20.07H50.08v.17c.06.86.08,1.81.08,3.16V34.09h2.1v-5a3.68,3.68,0,0,0,2.87,1.23A4.31,4.31,0,0,0,58.31,29a5.71,5.71,0,0,0,1.41-4,5.55,5.55,0,0,0-1.22-3.68A4,4,0,0,0,55.42,19.85Zm-.53,1.73c1.87,0,2.71,1.73,2.71,3.45,0,2.21-1.07,3.59-2.78,3.59a2.55,2.55,0,0,1-2.48-1.95,3.16,3.16,0,0,1-.07-.68V24.31a2.49,2.49,0,0,1,.07-.52l0-.17A2.65,2.65,0,0,1,54.89,21.58Z"/><path class="cls-1" d="M66.22,19.85a3.93,3.93,0,0,0-3.34,1.6l-.08-1.38H60.88v.17c.06.86.08,1.81.08,3.16V34.09h2.1v-5a3.68,3.68,0,0,0,2.87,1.23A4.35,4.35,0,0,0,69.12,29a5.75,5.75,0,0,0,1.4-4,5.55,5.55,0,0,0-1.22-3.68A4,4,0,0,0,66.22,19.85Zm-.53,1.73c1.87,0,2.71,1.73,2.71,3.45,0,2.21-1.07,3.59-2.79,3.59a2.55,2.55,0,0,1-2.47-1.95,3.16,3.16,0,0,1-.07-.68V24.31a2.49,2.49,0,0,1,.07-.52l0-.17A2.65,2.65,0,0,1,65.69,21.58Z"/><path class="cls-1" d="M79.75,22.13c-2-.76-2.59-1.36-2.59-2.46,0-.93.74-1.86,2.39-1.86a4.76,4.76,0,0,1,2.46.62l.18.11.59-1.75-.12-.07a6,6,0,0,0-3-.69c-2.68,0-4.55,1.58-4.55,3.84,0,1.82,1.17,3.1,3.68,4,1.78.67,2.45,1.35,2.45,2.51,0,1.33-1,2.15-2.67,2.15a5.69,5.69,0,0,1-3-.86l-.18-.12-.57,1.79.11.07a7.15,7.15,0,0,0,3.54.91c3.61,0,4.88-2.19,4.88-4.08S82.26,23.12,79.75,22.13Z"/><path class="cls-1" d="M87.06,17.68,85,18.32v1.75H83.5v1.67H85v5.14a3.92,3.92,0,0,0,.73,2.66,2.7,2.7,0,0,0,2,.79,4.8,4.8,0,0,0,1.62-.25l.12,0-.1-1.68-.21.07a3.15,3.15,0,0,1-1,.11c-.81,0-1.16-.52-1.16-1.72V21.74h2.53V20.07H87.06Z"/><path class="cls-1" d="M94.79,19.85c-2.94,0-5,2.19-5,5.32s2,5.16,4.83,5.16h0a4.94,4.94,0,0,0,5-5.34,5.28,5.28,0,0,0-1.34-3.71A4.65,4.65,0,0,0,94.79,19.85Zm-.06,1.65c1.88,0,2.74,1.84,2.74,3.55,0,2.1-1.17,3.63-2.78,3.63h0c-1.6,0-2.75-1.5-2.75-3.57C91.92,23.31,92.79,21.5,94.73,21.5Z"/><path class="cls-1" d="M106.05,19.94l-.12,0a2.39,2.39,0,0,0-.53-.06,3,3,0,0,0-2.62,1.68l-.07-1.46h-1.88v.17c.06.83.08,1.76.08,3l0,6.85H103V24.77a5,5,0,0,1,.06-.81,2.31,2.31,0,0,1,2.2-2.12,4.78,4.78,0,0,1,.57,0l.22,0Z"/><path class="cls-1" d="M110.77,19.83c-2.79,0-4.74,2.23-4.74,5.42A4.68,4.68,0,0,0,111,30.31a8.06,8.06,0,0,0,3.32-.63l.12-.06-.4-1.56-.17.07a6.53,6.53,0,0,1-2.63.47,2.92,2.92,0,0,1-3.14-3l6.77,0,0-.14a4,4,0,0,0,.07-.87C114.93,22.38,113.84,19.83,110.77,19.83Zm-.14,1.59a2.08,2.08,0,0,1,1.54.59,3,3,0,0,1,.72,1.95h-4.78A2.67,2.67,0,0,1,110.63,21.42Z"/><path class="cls-1" d="M37.54,6.78a16.82,16.82,0,0,1,2-.13,4.44,4.44,0,0,1,3,.81,2.85,2.85,0,0,1,1,2.36,3.32,3.32,0,0,1-1,2.55,4.86,4.86,0,0,1-3.23.94,14.51,14.51,0,0,1-1.72-.07Zm1,5.81a6.65,6.65,0,0,0,.95,0c2,0,3.11-1,3.11-2.78,0-1.57-1-2.53-2.95-2.53a5.84,5.84,0,0,0-1.11.09Z"/><path class="cls-1" d="M46.92,13.36a2.36,2.36,0,0,1-2.51-2.42A2.42,2.42,0,0,1,47,8.44a2.34,2.34,0,0,1,2.52,2.41,2.44,2.44,0,0,1-2.59,2.51Zm0-.64a1.68,1.68,0,0,0,1.59-1.84,1.6,1.6,0,1,0-3.17,0,1.65,1.65,0,0,0,1.57,1.81Z"/><path class="cls-1" d="M51,8.55l.7,2.38c.14.53.28,1,.38,1.51h0c.12-.48.29-1,.47-1.5l.85-2.39h.8l.81,2.35c.2.56.35,1.06.47,1.54h0a14.56,14.56,0,0,1,.4-1.53l.75-2.36h.94L56,13.26h-.86L54.31,11a14,14,0,0,1-.47-1.56h0A12,12,0,0,1,53.34,11l-.84,2.24h-.87L50.05,8.55Z"/><path class="cls-1" d="M58.61,9.82c0-.5,0-.89,0-1.27h.84l.05.76h0a2,2,0,0,1,1.73-.87,1.79,1.79,0,0,1,1.85,2v2.82h-1V10.54c0-.76-.31-1.4-1.21-1.4a1.35,1.35,0,0,0-1.27.88,1,1,0,0,0-.07.39v2.85h-1Z"/><path class="cls-1" d="M64.61,6.35h1v6.91h-1Z"/><path class="cls-1" d="M69.27,13.36a2.36,2.36,0,0,1-2.5-2.42,2.42,2.42,0,0,1,2.59-2.5,2.35,2.35,0,0,1,2.52,2.41,2.44,2.44,0,0,1-2.59,2.51Zm0-.64a1.68,1.68,0,0,0,1.59-1.84,1.6,1.6,0,1,0-3.17,0,1.65,1.65,0,0,0,1.57,1.81Z"/><path class="cls-1" d="M76.77,12.13a6.53,6.53,0,0,0,.08,1.13H76l-.09-.6h0a2,2,0,0,1-1.6.7A1.42,1.42,0,0,1,72.67,12c0-1.14,1.13-1.76,3.15-1.75v-.1c0-.39-.12-1.1-1.19-1.09a2.73,2.73,0,0,0-1.37.35L73,8.85a3.59,3.59,0,0,1,1.73-.41,1.75,1.75,0,0,1,2,1.93Zm-.93-1.28c-1,0-2.22.15-2.22,1.06a.8.8,0,0,0,.89.82,1.33,1.33,0,0,0,1.29-.79.84.84,0,0,0,0-.27Z"/><path class="cls-1" d="M82.82,6.35V12c0,.42,0,.89,0,1.22H82L82,12.44h0a2,2,0,0,1-1.77.92A2.24,2.24,0,0,1,77.92,11a2.34,2.34,0,0,1,2.34-2.53,1.78,1.78,0,0,1,1.58.71h0V6.35Zm-1,4.11a1.61,1.61,0,0,0,0-.37,1.38,1.38,0,0,0-1.37-1,1.61,1.61,0,0,0-1.57,1.81,1.56,1.56,0,0,0,1.55,1.75,1.42,1.42,0,0,0,1.39-1,1.45,1.45,0,0,0,0-.37Z"/><path class="cls-1" d="M88.82,13.36a2.36,2.36,0,0,1-2.51-2.42,2.43,2.43,0,0,1,2.6-2.5,2.35,2.35,0,0,1,2.52,2.41,2.44,2.44,0,0,1-2.6,2.51Zm0-.64a1.68,1.68,0,0,0,1.59-1.84,1.6,1.6,0,1,0-3.17,0,1.65,1.65,0,0,0,1.57,1.81Z"/><path class="cls-1" d="M92.63,9.82a12,12,0,0,0,0-1.27h.85l0,.76h0a2,2,0,0,1,1.73-.87,1.79,1.79,0,0,1,1.85,2v2.82h-1V10.54c0-.76-.31-1.4-1.21-1.4a1.37,1.37,0,0,0-1.28.88,1.18,1.18,0,0,0-.06.39v2.85h-1Z"/><path class="cls-1" d="M102.07,7.42V8.55h1.36V9.2h-1.36v2.54c0,.58.18.91.71.91a1.9,1.9,0,0,0,.55-.06l0,.66a3.31,3.31,0,0,1-.85.11,1.39,1.39,0,0,1-1-.36,1.69,1.69,0,0,1-.37-1.23V9.2h-.81V8.55h.81V7.68Z"/><path class="cls-1" d="M104.5,6.35h1V9.29h0a1.62,1.62,0,0,1,.68-.61,2,2,0,0,1,1-.24,1.79,1.79,0,0,1,1.83,2v2.81H108V10.55c0-.77-.32-1.4-1.21-1.4a1.36,1.36,0,0,0-1.28.86,1,1,0,0,0-.07.4v2.85h-1Z"/><path class="cls-1" d="M111.05,11.05a1.59,1.59,0,0,0,1.78,1.63,4.15,4.15,0,0,0,1.45-.23l.17.6a4.58,4.58,0,0,1-1.75.3A2.32,2.32,0,0,1,110.13,11a2.4,2.4,0,0,1,2.46-2.55,2.06,2.06,0,0,1,2.15,2.22,2.22,2.22,0,0,1,0,.41Zm2.78-.62A1.27,1.27,0,0,0,112.52,9a1.47,1.47,0,0,0-1.46,1.39Z"/></g></g></svg>