<svg xmlns="http://www.w3.org/2000/svg" xmlns:xlink="http://www.w3.org/1999/xlink" viewBox="0 0 125.57 41.08"><defs><style>.cls-1{fill:none;}.cls-2{clip-path:url(#clip-path);}.cls-3{fill:url(#linear-gradient);}.cls-4{fill:url(#linear-gradient-2);}.cls-5{fill:url(#linear-gradient-3);}.cls-6{fill:url(#linear-gradient-4);}.cls-7{fill:#f9f9f9;}</style><clipPath id="clip-path"><path class="cls-1" d="M27.21,18.08l-5.66-3.27L10.63,8.51c-.61-.35-1.21-.14-1.21.59V34.79c0,.55.43.79,1,.48l11.17-6.45,5.66-3.27,5.45-3.14c.63-.37.57-.88,0-1.17S27.21,18.08,27.21,18.08Z"/></clipPath><linearGradient id="linear-gradient" x1="16.43" y1="7.91" x2="16.43" y2="35.72" gradientUnits="userSpaceOnUse"><stop offset="0" stop-color="#257db0"/><stop offset="0.21" stop-color="#3c90b3"/><stop offset="0.74" stop-color="#73bdb9"/><stop offset="1" stop-color="#89cebc"/></linearGradient><linearGradient id="linear-gradient-2" x1="9.42" y1="14.81" x2="27.21" y2="14.81" gradientUnits="userSpaceOnUse"><stop offset="0" stop-color="#51bfac"/><stop offset="1" stop-color="#dee899"/></linearGradient><linearGradient id="linear-gradient-3" x1="18.32" y1="21.82" x2="18.32" y2="35.83" gradientUnits="userSpaceOnUse"><stop offset="0" stop-color="#eb403d"/><stop offset="0.19" stop-color="#d64252"/><stop offset="0.74" stop-color="#9f4887"/><stop offset="1" stop-color="#894a9c"/></linearGradient><linearGradient id="linear-gradient-4" x1="28.56" y1="18.08" x2="28.56" y2="25.55" gradientUnits="userSpaceOnUse"><stop offset="0" stop-color="#f48779"/><stop offset="0.61" stop-color="#fab076"/><stop offset="1" stop-color="#fdc674"/></linearGradient></defs><title>googleplay</title><g id="Layer_2" data-name="Layer 2"><g id="MockUp_2" data-name="MockUp 2"><rect width="125.57" height="41.08" rx="5.55" ry="5.55"/><g id="PLAY"><g class="cls-2"><polygon class="cls-3" points="9.42 7.91 9.42 21.82 9.42 35.72 23.45 21.82 9.42 7.91"/><polygon class="cls-4" points="27.21 18.08 21.55 14.81 9.42 7.81 9.42 7.91 23.45 21.82 27.21 18.08"/><polygon class="cls-5" points="9.42 35.72 9.42 35.83 21.55 28.82 27.21 25.55 23.45 21.82 9.42 35.72"/><polygon class="cls-6" points="27.21 18.08 23.45 21.82 27.21 25.55 33.68 21.82 27.21 18.08"/></g></g><path class="cls-7" d="M97.73,27.25A3.45,3.45,0,0,1,96.28,27a2.67,2.67,0,0,1-1.09-.89H95.1a10.64,10.64,0,0,1,.09,1.34v3.33H94V19h1l.17,1.1h.06a2.85,2.85,0,0,1,1.1-1,3.39,3.39,0,0,1,1.44-.29,3,3,0,0,1,2.48,1.1,4.85,4.85,0,0,1,.87,3.08,4.79,4.79,0,0,1-.89,3.1A3,3,0,0,1,97.73,27.25Zm-.18-7.34a2.18,2.18,0,0,0-1.8.69,3.56,3.56,0,0,0-.56,2.18v.27a4.12,4.12,0,0,0,.56,2.44,2.17,2.17,0,0,0,1.83.74,1.89,1.89,0,0,0,1.64-.85A4,4,0,0,0,99.81,23a3.84,3.84,0,0,0-.59-2.32A2,2,0,0,0,97.55,19.91Z"/><path class="cls-7" d="M103.92,27.11H102.7V15.62h1.22Z"/><path class="cls-7" d="M111,27.11,110.72,26h-.06a3.24,3.24,0,0,1-1.2,1,3.74,3.74,0,0,1-1.51.27,2.65,2.65,0,0,1-1.88-.62,2.24,2.24,0,0,1-.69-1.76q0-2.45,3.92-2.57l1.38,0v-.5a2.06,2.06,0,0,0-.41-1.41A1.7,1.7,0,0,0,109,19.9a5.23,5.23,0,0,0-2.29.62l-.38-.94a5.58,5.58,0,0,1,1.31-.51,5.85,5.85,0,0,1,1.43-.19,3.09,3.09,0,0,1,2.15.65,2.68,2.68,0,0,1,.69,2.06v5.52Zm-2.76-.87a2.5,2.5,0,0,0,1.79-.62,2.32,2.32,0,0,0,.66-1.76v-.73l-1.23.05a4.44,4.44,0,0,0-2.11.45,1.37,1.37,0,0,0-.64,1.25,1.28,1.28,0,0,0,.4,1A1.68,1.68,0,0,0,108.2,26.24Z"/><path class="cls-7" d="M112.58,19h1.32l1.77,4.61a16.43,16.43,0,0,1,.72,2.28h.06c.07-.25.2-.68.4-1.29s.88-2.47,2-5.6h1.31l-3.48,9.21a4.62,4.62,0,0,1-1.2,1.94,2.59,2.59,0,0,1-1.7.57,4.53,4.53,0,0,1-1.1-.13v-1a4.16,4.16,0,0,0,.9.09,1.87,1.87,0,0,0,1.81-1.42l.45-1.15Z"/><path class="cls-7" d="M75,19.77a2.85,2.85,0,0,1,1.2,2.28,2.88,2.88,0,0,1-1.42,2.41,1.16,1.16,0,0,0-.48.83.93.93,0,0,0,.44.72l.61.48a2.92,2.92,0,0,1,1.42,2.37c0,1.59-1.54,3.19-4.44,3.19-2.46,0-3.64-1.16-3.64-2.42A2.42,2.42,0,0,1,70,27.57a7.31,7.31,0,0,1,3.23-.78,1.76,1.76,0,0,1-.51-1.15,1.56,1.56,0,0,1,.17-.66l-.54,0a2.67,2.67,0,0,1-2.81-2.65,3.05,3.05,0,0,1,1.09-2.27,4.57,4.57,0,0,1,3-.93h3.48l-1.08.61Zm-1.2,7.51a2.36,2.36,0,0,0-.39,0,6.81,6.81,0,0,0-1.78.28,1.89,1.89,0,0,0-1.45,1.74c0,1.2,1.16,2.06,3,2.06,1.63,0,2.49-.78,2.49-1.83C75.67,28.65,75.11,28.2,73.83,27.28Zm.49-3.21a1.71,1.71,0,0,0,.42-1.24c0-1.22-.73-3.11-2.13-3.11a1.6,1.6,0,0,0-1.19.56,2,2,0,0,0-.37,1.25c0,1.13.66,3,2.12,3A1.73,1.73,0,0,0,74.32,24.07Z"/><path class="cls-7" d="M64.38,27a4,4,0,0,1-4.13-4,4.19,4.19,0,0,1,4.38-4.1,4,4,0,0,1,4,4A4.13,4.13,0,0,1,64.38,27Zm2.11-1.37A3.08,3.08,0,0,0,67,23.77c0-1.49-.71-4.33-2.81-4.33a2.34,2.34,0,0,0-1.52.58,2.55,2.55,0,0,0-.78,2.06c0,1.67.83,4.42,2.88,4.42A2.17,2.17,0,0,0,66.49,25.64Z"/><path class="cls-7" d="M55.22,27a4,4,0,0,1-4.12-4,4.18,4.18,0,0,1,4.37-4.1,4,4,0,0,1,4,4A4.13,4.13,0,0,1,55.22,27Zm2.11-1.37a3,3,0,0,0,.51-1.87c0-1.49-.71-4.33-2.81-4.33a2.36,2.36,0,0,0-1.52.58,2.57,2.57,0,0,0-.77,2.06c0,1.67.82,4.42,2.87,4.42A2.15,2.15,0,0,0,57.33,25.64Z"/><path class="cls-7" d="M49.81,26.75l-2.43.56a18.44,18.44,0,0,1-2.8.28c-4.69,0-6.47-3.44-6.47-6.14,0-3.3,2.53-6.36,6.86-6.36a9.84,9.84,0,0,1,2.6.36,6.9,6.9,0,0,1,2.24,1.05L48.4,17.85l-.6.13.43-.68a4.86,4.86,0,0,0-3.64-1.59,4.68,4.68,0,0,0-4.7,5,6,6,0,0,0,6,6.2,5.12,5.12,0,0,0,2.16-.43V23.76l-2.57.13,1.36-.73h3.6l-.44.43a.4.4,0,0,0-.17.27c0,.15,0,.64,0,.81Z"/><path class="cls-7" d="M80.4,26.26c-.56-.05-.68-.16-.68-.82V15.83a.37.37,0,0,1,0-.11c.07-.6.24-.7.76-1H78.06l-1.27.61h1.3V25.81c0,.34-.07.4-.46.9h3l.63-.37Z"/><path class="cls-7" d="M87.31,26.41c-.19.1-.37.22-.56.31a4,4,0,0,1-1.64.32,3.63,3.63,0,0,1-2.24-.66,4.37,4.37,0,0,1-1.72-3.56A3.83,3.83,0,0,1,85,18.92a3.28,3.28,0,0,1,1.74.48,2.8,2.8,0,0,1,1.18,1.67l-4,1.6-1.3.1c.42,2.14,1.87,3.39,3.47,3.39a4.31,4.31,0,0,0,2.06-.59Zm-1.59-5c.32-.12.49-.22.49-.46a1.68,1.68,0,0,0-1.67-1.45,2.08,2.08,0,0,0-1.94,2.34c0,.29,0,.59.05.9Z"/><path class="cls-7" d="M88.94,19v1.11H88.8V19h-.37v-.12h.87V19Z"/><path class="cls-7" d="M90.45,20.15V19h0l-.35,1.12H90L89.65,19h0v1.12h-.12V18.92h.21l.31,1h0l.31-1h.21v1.23Z"/><path class="cls-7" d="M41.48,11.79h-.84a5.47,5.47,0,0,0-.24-1H39.18a4.69,4.69,0,0,0-.25,1h-.79a17.4,17.4,0,0,1,.61-1.69,13.73,13.73,0,0,0,.62-1.75h1a14.82,14.82,0,0,0,.56,1.72A15.55,15.55,0,0,1,41.48,11.79ZM40.26,10.3q-.45-1.37-.45-1.47h0c0,.06-.16.56-.47,1.47Z"/><path class="cls-7" d="M44.88,11.79h-.65a6.34,6.34,0,0,0-.73-1.14,6.68,6.68,0,0,1-.86-1.49h0a10.06,10.06,0,0,1,.06,1c0,.43,0,1,0,1.59h-.65c0-.55,0-1.15,0-1.8s0-1.19,0-1.64h.78a4.92,4.92,0,0,0,.65,1.12,6.24,6.24,0,0,1,.8,1.41h0c0-.4-.06-.75-.06-1.06,0-.48,0-1,0-1.47h.66c0,.44,0,1,0,1.64S44.86,11.25,44.88,11.79Z"/><path class="cls-7" d="M48.7,10a1.94,1.94,0,0,1-.48,1.31,1.69,1.69,0,0,1-1.34.56l-1.08,0c0-.53,0-1.13,0-1.8s0-1.18,0-1.64h1.09a1.78,1.78,0,0,1,1.38.47A1.64,1.64,0,0,1,48.7,10Zm-.72.12a1.31,1.31,0,0,0-.29-.86,1.13,1.13,0,0,0-.91-.34,2,2,0,0,0-.31,0c0,.35,0,.72,0,1.1s0,.84,0,1.25a1.86,1.86,0,0,0,.34,0,1,1,0,0,0,.84-.36A1.35,1.35,0,0,0,48,10.07Z"/><path class="cls-7" d="M52.23,11.79h-.78A5.31,5.31,0,0,0,51,10.64a.61.61,0,0,0-.53-.22h-.29c0,.45,0,.91,0,1.37h-.73q0-.79,0-1.8c0-.64,0-1.18,0-1.64H50.7c.81,0,1.21.27,1.21.83a.93.93,0,0,1-.69.91v0a.84.84,0,0,1,.47.42A9.37,9.37,0,0,1,52.23,11.79Zm-1-2.43c0-.35-.23-.52-.68-.52a2.94,2.94,0,0,0-.44,0c0,.28,0,.63,0,1.07h.25C51,9.94,51.24,9.75,51.24,9.36Z"/><path class="cls-7" d="M56,10a1.9,1.9,0,0,1-.5,1.34,1.59,1.59,0,0,1-1.22.53,1.53,1.53,0,0,1-1.17-.49,1.72,1.72,0,0,1-.47-1.24,1.88,1.88,0,0,1,.5-1.34,1.67,1.67,0,0,1,2.39-.05A1.75,1.75,0,0,1,56,10Zm-.73.07A1.36,1.36,0,0,0,55,9.19a.87.87,0,0,0-.7-.34.79.79,0,0,0-.65.34,1.38,1.38,0,0,0-.27.88,1.36,1.36,0,0,0,.28.89.87.87,0,0,0,.7.34A.8.8,0,0,0,55,11,1.42,1.42,0,0,0,55.28,10.08Z"/><path class="cls-7" d="M57.5,11.79h-.75c0-.55,0-1.15,0-1.8s0-1.19,0-1.64h.75c0,.45,0,1,0,1.64S57.48,11.25,57.5,11.79Z"/><path class="cls-7" d="M61.32,10a1.94,1.94,0,0,1-.48,1.31,1.69,1.69,0,0,1-1.34.56l-1.08,0q0-.79,0-1.8c0-.64,0-1.18,0-1.64h1.09a1.78,1.78,0,0,1,1.38.47A1.64,1.64,0,0,1,61.32,10Zm-.72.12a1.31,1.31,0,0,0-.29-.86,1.13,1.13,0,0,0-.91-.34,2,2,0,0,0-.31,0c0,.35,0,.72,0,1.1s0,.84,0,1.25a1.86,1.86,0,0,0,.34,0,1,1,0,0,0,.84-.36A1.35,1.35,0,0,0,60.6,10.07Z"/><path class="cls-7" d="M66.39,11.79h-.84a5.47,5.47,0,0,0-.24-1H64.09a4.69,4.69,0,0,0-.25,1h-.79a17.4,17.4,0,0,1,.61-1.69,13.73,13.73,0,0,0,.62-1.75h1a13.58,13.58,0,0,0,.55,1.72A13.33,13.33,0,0,1,66.39,11.79ZM65.17,10.3q-.45-1.37-.45-1.47h0c0,.06-.16.56-.47,1.47Z"/><path class="cls-7" d="M69.47,9.25a1,1,0,0,1-.47.93,2.07,2.07,0,0,1-1.15.31h-.18c0,.33,0,.77,0,1.31H67c0-.51,0-1.11,0-1.8s0-1.18,0-1.64h1.32a1.43,1.43,0,0,1,.84.23A.76.76,0,0,1,69.47,9.25Zm-.68.15q0-.57-.75-.57a2.85,2.85,0,0,0-.4,0c0,.34,0,.71,0,1.13h.16C68.47,10,68.79,9.8,68.79,9.4Z"/><path class="cls-7" d="M72.63,9.25a1,1,0,0,1-.47.93,2.07,2.07,0,0,1-1.15.31h-.17c0,.33,0,.77,0,1.31h-.74q0-.77,0-1.8c0-.63,0-1.18,0-1.64h1.31a1.46,1.46,0,0,1,.85.23A.76.76,0,0,1,72.63,9.25ZM72,9.4q0-.57-.75-.57a2.87,2.87,0,0,0-.39,0c0,.34,0,.71,0,1.13H71C71.63,10,72,9.8,72,9.4Z"/><path class="cls-7" d="M77.8,10a1.89,1.89,0,0,1-.49,1.34,1.59,1.59,0,0,1-1.23.53,1.56,1.56,0,0,1-1.17-.49,1.71,1.71,0,0,1-.46-1.24,1.88,1.88,0,0,1,.49-1.34,1.59,1.59,0,0,1,1.23-.53,1.55,1.55,0,0,1,1.16.48A1.7,1.7,0,0,1,77.8,10Zm-.73.07a1.36,1.36,0,0,0-.28-.89.86.86,0,0,0-.69-.34.81.81,0,0,0-.66.34,1.38,1.38,0,0,0-.27.88,1.36,1.36,0,0,0,.29.89.86.86,0,0,0,.69.34.81.81,0,0,0,.66-.34A1.41,1.41,0,0,0,77.07,10.08Z"/><path class="cls-7" d="M81.38,11.79h-.65A7.12,7.12,0,0,0,80,10.65a6.28,6.28,0,0,1-.86-1.49h0a8,8,0,0,1,.07,1c0,.43,0,1,0,1.59h-.65c0-.55,0-1.15,0-1.8s0-1.19,0-1.64h.78A4.92,4.92,0,0,0,80,9.47a6.69,6.69,0,0,1,.8,1.41h0c0-.4-.06-.75-.06-1.06,0-.48,0-1,0-1.47h.66c0,.44,0,1,0,1.64S81.35,11.25,81.38,11.79Z"/></g></g></svg>