<?xml version="1.0" standalone="no"?>
<!DOCTYPE svg PUBLIC "-//W3C//DTD SVG 20010904//EN"
 "http://www.w3.org/TR/2001/REC-SVG-20010904/DTD/svg10.dtd">
<svg version="1.0" xmlns="http://www.w3.org/2000/svg"
 width="300.000000pt" height="300.000000pt" viewBox="0 0 300.000000 300.000000"
 preserveAspectRatio="xMidYMid meet">
<metadata>
Created by potrace 1.11, written by Peter Selinger 2001-2013
</metadata>
<g transform="translate(0.000000,300.000000) scale(0.100000,-0.100000)"
fill="#000000" stroke="none">
<path d="M1390 2994 c-8 -1 -55 -8 -105 -14 -405 -55 -802 -310 -1035 -666
-83 -127 -179 -351 -205 -479 -31 -153 -46 -386 -31 -485 2 -14 6 -50 10 -80
11 -85 53 -234 95 -340 160 -397 502 -720 909 -856 166 -56 234 -66 452 -70
254 -3 368 15 568 92 454 175 791 557 919 1044 23 83 26 121 30 310 5 243 -5
330 -58 497 -111 349 -345 646 -662 836 -171 104 -342 164 -572 202 -39 7
-286 14 -315 9z m31 -102 c-27 -50 -171 -161 -257 -197 -56 -23 -171 -54 -178
-48 -9 9 51 73 113 122 73 57 157 98 245 121 89 24 89 24 77 2z m314 -14 c33
-11 89 -35 124 -55 68 -38 211 -166 195 -175 -16 -10 -146 30 -220 67 -67 34
-224 164 -224 186 0 11 47 2 125 -23z m-185 -110 c15 -56 22 -111 22 -168 0
-82 -23 -214 -45 -255 -9 -17 -12 -14 -28 33 -22 66 -30 110 -34 193 -5 90 33
279 55 279 4 0 18 -37 30 -82z m-573 5 c-31 -32 -71 -77 -88 -100 -25 -35 -37
-43 -62 -43 -53 -1 -107 -11 -165 -31 -30 -10 -57 -18 -58 -16 -1 1 32 28 74
60 68 51 319 187 346 187 5 0 -16 -26 -47 -57z m1258 -60 c69 -42 165 -111
165 -119 0 -3 -5 -2 -12 2 -19 12 -130 33 -173 34 -35 0 -43 5 -59 31 -10 17
-45 59 -79 95 l-60 65 79 -36 c43 -20 106 -52 139 -72z m-847 -30 c-9 -59 -5
-204 7 -223 11 -18 -2 -11 -73 38 -63 43 -112 69 -167 87 -16 5 -11 10 30 27
28 12 86 45 130 74 44 29 80 53 81 54 1 0 -3 -26 -8 -57z m318 12 c43 -33 164
-95 186 -95 7 0 -26 -20 -73 -43 -47 -23 -104 -57 -126 -75 -48 -38 -57 -40
-47 -10 10 31 12 168 4 221 -7 51 -9 51 56 2z m-980 -231 c-59 -57 -100 -85
-170 -118 -91 -44 -191 -74 -204 -62 -14 14 136 143 214 183 74 39 223 87 234
76 3 -3 -30 -38 -74 -79z m1723 16 c75 -37 173 -112 211 -161 36 -44 32 -45
-54 -23 -76 20 -187 75 -246 122 -48 39 -120 113 -120 123 0 13 153 -32 209
-61z m-1377 41 c74 -21 148 -56 211 -100 57 -39 151 -135 138 -139 -24 -8
-120 22 -206 64 -87 42 -203 132 -225 175 -14 24 -4 24 82 0z m977 2 c-51 -67
-158 -150 -242 -188 -67 -31 -197 -66 -197 -54 0 16 111 120 168 156 78 50
208 100 266 102 16 1 17 -1 5 -16z m-1123 -142 c24 -106 22 -227 -6 -328 -12
-46 -26 -83 -30 -83 -8 0 -25 43 -36 91 -26 118 -24 238 6 348 20 74 25 82 36
66 7 -10 21 -52 30 -94z m1249 44 c28 -97 37 -212 23 -295 -11 -66 -40 -160
-49 -160 -10 0 -37 89 -49 162 -10 62 -5 188 9 236 5 18 9 33 9 35 -2 12 27
85 33 81 4 -2 15 -29 24 -59z m-1416 -87 c-9 -52 -5 -230 6 -248 10 -17 -4 -8
-65 39 -25 19 -79 50 -120 69 -67 32 -72 36 -50 42 52 15 127 59 236 139 1 1
-2 -18 -7 -41z m1694 -74 l79 -37 -35 -12 c-46 -16 -143 -70 -188 -106 l-35
-28 6 51 c8 63 6 171 -4 217 l-8 33 53 -40 c30 -22 89 -57 132 -78z m-1268 0
l74 -37 -83 -41 c-45 -23 -102 -57 -125 -75 l-42 -33 8 28 c4 16 7 81 7 145
l-1 117 43 -34 c25 -18 78 -50 119 -70z m829 -1 c-2 -60 1 -125 5 -146 9 -38
9 -38 -12 -22 -81 58 -132 89 -181 109 l-56 23 62 27 c35 15 90 47 123 71 33
24 61 44 61 44 1 1 0 -47 -2 -106z m-1545 -115 c103 -31 185 -81 274 -167 59
-57 61 -72 7 -60 -66 15 -171 58 -225 92 -53 33 -175 144 -175 159 0 10 31 4
119 -24z m952 14 c-15 -29 -105 -108 -166 -147 -83 -54 -275 -120 -275 -95 0
12 105 111 152 143 59 41 158 85 226 102 75 18 74 18 63 -3z m322 -17 c38 -13
93 -39 124 -57 59 -36 168 -129 183 -158 9 -16 6 -17 -55 -4 -77 16 -174 58
-235 103 -52 37 -150 130 -150 142 0 12 52 1 133 -26z m947 30 c0 -12 -86 -98
-129 -129 -25 -19 -73 -48 -106 -64 -67 -34 -202 -75 -209 -63 -7 11 91 107
151 147 67 44 150 81 222 99 67 16 71 17 71 10z m-2395 -160 c28 -118 14 -311
-28 -390 -14 -27 -14 -27 -32 36 -25 92 -28 114 -28 214 0 63 6 115 23 174 22
81 23 83 36 58 8 -14 21 -56 29 -92z m1255 24 c33 -123 31 -259 -7 -374 -23
-71 -25 -73 -40 -29 -48 136 -50 282 -7 432 8 28 18 52 23 52 5 0 19 -37 31
-81z m1264 -23 c21 -95 24 -141 15 -224 -8 -75 -36 -182 -48 -182 -8 0 -34 79
-46 139 -15 71 -8 205 15 290 20 74 25 82 36 66 7 -10 20 -50 28 -89z m-2256
-117 l74 -36 -78 -37 c-43 -20 -97 -53 -120 -71 -23 -19 -44 -35 -46 -35 -3 0
-2 22 2 50 7 55 4 182 -5 218 -6 23 -3 22 47 -14 29 -22 86 -55 126 -75z m831
69 c-4 -24 -6 -89 -4 -146 l4 -103 -41 33 c-23 18 -78 51 -123 73 l-82 41 56
22 c31 12 88 44 126 71 39 27 71 50 71 50 1 1 -2 -18 -7 -41z m441 -77 l63
-28 -67 -31 c-36 -17 -92 -49 -123 -72 -31 -22 -57 -39 -59 -38 -1 2 2 25 6
52 9 57 6 181 -5 215 -6 21 1 18 58 -23 36 -25 93 -59 127 -75z m815 15 c-2
-57 0 -120 5 -139 4 -20 5 -38 3 -41 -3 -3 -29 13 -57 34 -29 22 -84 54 -123
72 l-71 33 46 19 c51 21 176 98 186 115 4 6 9 11 11 11 2 0 2 -47 0 -104z
m-1871 -128 c-57 -65 -130 -120 -219 -163 -81 -39 -191 -72 -202 -61 -8 7 60
77 119 122 69 54 183 108 264 127 33 7 61 12 63 11 2 -2 -9 -18 -25 -36z m293
18 c67 -18 151 -57 210 -97 54 -37 157 -138 149 -146 -18 -18 -202 50 -285
105 -49 32 -161 135 -161 147 0 9 33 5 87 -9z m962 -23 c-56 -60 -88 -86 -158
-129 -82 -51 -261 -111 -261 -87 0 4 32 39 72 76 96 91 262 173 357 176 24 1
24 0 -10 -36z m336 11 c99 -33 229 -115 280 -176 55 -65 54 -62 10 -54 -148
28 -326 133 -406 240 -13 17 -11 18 27 13 22 -3 62 -13 89 -23z m-2231 -61 c4
-27 22 -88 40 -136 l34 -88 -28 -67 c-16 -37 -34 -96 -41 -132 -14 -73 -29
-99 -30 -54 0 16 -3 38 -6 49 -19 76 -5 475 17 475 4 0 10 -21 14 -47z m792
-72 c10 -42 17 -110 17 -151 0 -82 -26 -216 -47 -245 -11 -15 -14 -11 -30 37
-40 127 -42 271 -5 394 20 67 24 74 35 59 7 -10 21 -52 30 -94z m1255 18 c35
-130 24 -325 -23 -413 -10 -18 -11 -17 -23 10 -34 83 -49 222 -35 327 12 81
41 170 52 159 5 -5 19 -43 29 -83z m743 -199 c-3 -112 -9 -178 -18 -188 -2 -1
-7 14 -11 35 -4 21 -20 72 -36 114 l-29 76 23 54 c14 30 30 79 38 109 l14 55
11 -65 c6 -36 9 -121 8 -190z m-2168 31 l-1 -139 -46 34 c-26 19 -79 50 -118
69 l-71 35 87 45 c49 25 102 56 118 70 17 13 30 24 31 25 0 0 0 -63 0 -139z
m339 88 c39 -25 91 -54 117 -65 27 -10 48 -21 48 -24 0 -3 -31 -18 -67 -35
-37 -16 -94 -49 -126 -73 -49 -36 -58 -39 -52 -22 11 33 14 182 5 229 -4 23
-5 41 -1 39 3 -2 38 -24 76 -49z m919 -56 c-2 -60 0 -125 5 -145 l9 -37 -46
35 c-25 19 -81 52 -123 72 -43 20 -78 39 -78 42 0 3 28 18 63 33 35 16 88 46
117 68 30 21 55 39 55 39 1 0 0 -48 -2 -107z m333 61 c37 -26 92 -57 123 -71
l55 -24 -57 -24 c-55 -23 -163 -88 -174 -106 -14 -23 -20 -4 -13 44 7 57 4
201 -6 217 -11 18 4 10 72 -36z m-1882 -171 c74 -23 143 -60 210 -111 59 -45
132 -119 124 -126 -11 -10 -162 40 -230 75 -76 39 -189 132 -210 171 -10 19
-8 20 23 13 18 -3 56 -13 83 -22z m958 14 c-35 -57 -154 -150 -246 -192 -66
-31 -186 -65 -191 -56 -13 20 126 142 211 186 100 51 244 91 226 62z m302 -14
c54 -17 142 -60 190 -92 35 -24 145 -131 145 -142 0 -15 -159 35 -231 72 -76
39 -189 132 -210 171 -10 19 -8 20 23 13 18 -3 56 -13 83 -22z m943 -6 c-39
-50 -136 -125 -213 -163 -74 -36 -203 -76 -210 -65 -5 10 70 90 120 128 78 60
230 125 303 131 l25 2 -25 -33z m-2378 -112 c24 -94 25 -233 3 -323 -8 -31
-17 -67 -20 -79 -9 -37 -21 -27 -38 32 -41 140 -41 267 1 408 10 32 21 54 26
49 4 -4 17 -44 28 -87z m1260 3 c30 -111 30 -234 0 -345 -12 -46 -26 -83 -31
-83 -8 0 -32 70 -45 131 -9 44 -11 180 -3 227 13 72 41 162 49 157 4 -3 18
-42 30 -87z m1259 7 c25 -97 31 -174 19 -257 -10 -77 -38 -178 -48 -178 -4 0
-18 37 -30 83 -36 132 -29 285 20 411 6 16 12 27 15 25 2 -2 13 -40 24 -84z
m-2372 -72 c27 -20 81 -52 122 -71 l75 -36 -64 -28 c-35 -16 -91 -49 -126 -73
l-63 -45 5 27 c9 47 11 160 4 213 -4 27 -5 50 -3 50 1 0 24 -16 50 -37z m951
-10 c-9 -51 -4 -215 8 -234 9 -15 -7 -6 -66 39 -44 34 -159 92 -183 92 -6 0
24 18 68 39 44 21 100 54 125 74 25 20 48 36 51 36 4 1 2 -20 -3 -46z m323 0
c25 -18 76 -47 114 -64 l68 -32 -63 -28 c-34 -16 -90 -49 -125 -74 l-63 -44 6
37 c8 49 7 178 -1 220 -7 37 -9 37 64 -15z m938 5 c-9 -50 -4 -222 8 -241 4
-6 -4 -4 -17 6 -82 59 -146 97 -189 113 l-50 17 77 38 c43 20 97 53 122 73 25
19 48 35 51 35 4 1 3 -18 -2 -41z m-1915 -226 c-39 -37 -96 -82 -126 -100 -85
-50 -258 -105 -258 -82 0 17 133 131 197 168 82 48 233 98 253 85 2 -2 -28
-34 -66 -71z m331 57 c108 -26 242 -106 328 -198 l49 -52 -34 6 c-146 25 -292
103 -387 207 -43 48 -50 62 -25 55 11 -4 42 -11 69 -18z m985 1 c-17 -31 -121
-120 -188 -159 -65 -38 -153 -72 -220 -85 -29 -5 -32 -4 -22 13 20 39 141 138
212 174 66 33 183 74 215 74 8 0 9 -6 3 -17z m351 -27 c78 -30 157 -82 226
-148 37 -35 65 -67 62 -70 -10 -10 -156 33 -217 64 -82 42 -230 165 -232 193
0 8 107 -17 161 -39z m-1488 -66 c46 -144 41 -310 -13 -442 l-12 -30 -15 40
c-39 109 -50 273 -23 376 19 76 31 109 39 109 4 0 15 -24 24 -53z m1257 11
c48 -158 45 -318 -10 -453 l-12 -30 -15 40 c-51 139 -51 295 -2 453 14 43 23
40 39 -10z m-1410 -110 c-10 -54 -10 -169 0 -213 4 -19 6 -35 5 -35 -2 0 -35
22 -74 49 -39 27 -96 59 -127 71 l-55 23 53 21 c57 24 126 65 171 102 16 13
30 24 31 24 2 0 0 -19 -4 -42z m417 -64 l83 -42 -65 -30 c-65 -31 -140 -78
-169 -108 -14 -14 -15 -12 -9 18 9 41 9 180 1 230 l-6 38 41 -32 c22 -18 78
-51 124 -74z m838 -37 l0 -143 -56 41 c-32 23 -87 55 -123 70 l-66 28 57 23
c59 24 183 103 183 116 0 5 1 8 3 8 1 0 3 -64 2 -143z m439 27 c56 -25 78 -44
54 -44 -25 0 -123 -51 -176 -92 -30 -22 -55 -38 -57 -36 -2 2 0 20 4 40 10 42
7 193 -4 227 -5 18 4 14 58 -24 36 -25 90 -57 121 -71z m-1966 -114 c102 -36
213 -114 292 -204 l25 -28 -45 7 c-64 10 -163 49 -232 91 -57 35 -178 146
-178 163 0 11 62 -3 138 -29z m2176 -3 c-84 -97 -222 -182 -347 -212 -37 -10
-70 -15 -72 -13 -10 10 72 92 137 138 75 52 193 106 255 116 21 3 40 8 42 10
2 2 6 2 9 -1 3 -2 -8 -19 -24 -38z m-1255 6 c-93 -106 -221 -186 -351 -219
-32 -9 -64 -14 -71 -11 -18 6 111 127 178 167 63 38 204 89 244 90 l24 0 -24
-27z m316 3 c121 -38 237 -116 320 -215 l20 -23 -45 7 c-138 23 -297 116 -394
233 -19 22 -19 22 2 22 12 0 55 -11 97 -24z m-169 -129 c23 -95 21 -228 -6
-331 -11 -44 -23 -82 -26 -85 -21 -21 -58 148 -58 264 1 114 39 269 60 241 7
-10 20 -50 30 -89z m-166 -52 c-10 -45 -10 -174 0 -219 l7 -34 -76 53 c-43 28
-98 60 -124 70 -26 10 -47 21 -47 24 0 4 21 15 48 24 26 10 79 40 117 67 39
26 73 49 76 49 4 1 3 -15 -1 -34z m326 -11 c38 -26 93 -58 123 -71 l54 -24
-74 -35 c-41 -20 -97 -53 -125 -74 l-50 -38 7 52 c7 56 3 211 -6 226 -10 17 0
11 71 -36z m-1022 -109 c38 -9 93 -19 121 -22 45 -5 55 -10 71 -37 10 -17 53
-66 96 -108 43 -43 77 -78 75 -78 -9 0 -138 55 -191 82 -75 38 -121 67 -218
141 -81 61 -97 77 -50 54 15 -8 58 -22 96 -32z m1712 6 c-43 -48 -228 -158
-360 -215 l-58 -26 64 63 c35 34 77 81 92 103 26 40 29 42 94 49 37 3 92 15
122 25 30 10 57 18 59 19 2 1 -4 -7 -13 -18z m-1338 -61 c94 -26 176 -68 247
-126 58 -47 114 -104 115 -116 0 -10 -115 19 -173 44 -77 32 -153 83 -219 146
-54 52 -69 72 -50 72 4 0 40 -9 80 -20z m982 1 c-22 -41 -140 -133 -225 -176
-85 -43 -215 -82 -215 -65 0 12 98 107 143 138 81 56 221 114 285 119 18 1 20
-1 12 -16z"/>
</g>
</svg>
